STARTFONT 2.1
COMMENT 
COMMENT ipa-10x20m.bdf, a part of Kappa 20dot Fonts Version 0.396 (2003/10/06).
COMMENT 
COMMENT Designed by KANOU Hiroki (kanou@khdd.net), glyph designs of
COMMENT alphabets are originated with NAGAO Sadakazu (snagao@tkb.att.ne.jp).
COMMENT for more information, see http://khdd.net/20dot.fonts/
COMMENT 
COMMENT THIS FONT IS PUBLIC DOMAIN: YOU CAN USE, COPY, MODIFY, EVEN COPYRIGHT
COMMENT AS YOURS AND SELL THIS FONT, BUT YOU CAN'T PROHIBIT ANYONE FROM FREE
COMMENT CIRCULATION OF THIS FONT AND ITS DESCENDANTS INDEPENDENT OF YOUR
COMMENT VARIATIONS AND/OR DERIVATIONS. SEE `README' (IN JAPANESE) FOR DETAILS.
COMMENT 
FONT -Kappa-Fixed-Medium-R-Normal--20-190-75-75-C-100-MuleIPA-1
SIZE 20 75 75
FONTBOUNDINGBOX 10 20 0 -3
STARTPROPERTIES 19
FONT_ASCENT 17
FONT_DESCENT 3
COPYRIGHT "public domain"
FONTNAME_REGISTRY ""
FOUNDRY "Kappa"
FAMILY_NAME "Fixed"
WEIGHT_NAME "Medium"
SLANT "R"
SETWIDTH_NAME "Normal"
ADD_STYLE_NAME ""
PIXEL_SIZE 20
POINT_SIZE 190
RESOLUTION_X 75
RESOLUTION_Y 75
SPACING "C"
AVERAGE_WIDTH 100
CHARSET_REGISTRY "MuleIPA"
CHARSET_ENCODING "1"
DEFAULT_CHAR 0
ENDPROPERTIES
CHARS 67
STARTCHAR LOWER-CASE_I
ENCODING 160
SWIDTH 505 0
DWIDTH 10 0
BBX 10 20 0 -3
BITMAP
0000
0000
0000
0c00
0c00
0000
0000
3c00
0400
0400
0400
0400
0400
0400
0400
0400
7f80
0000
0000
0000
ENDCHAR
STARTCHAR SMALL_CAP_I
ENCODING 161
SWIDTH 505 0
DWIDTH 10 0
BBX 10 20 0 -3
BITMAP
0000
0000
0000
0000
0000
0000
0000
3f80
0400
0400
0400
0400
0400
0400
0400
0400
3f80
0000
0000
0000
ENDCHAR
STARTCHAR LOWER_CASE_E
ENCODING 162
SWIDTH 505 0
DWIDTH 10 0
BBX 10 20 0 -3
BITMAP
0000
0000
0000
0000
0000
0000
0000
1e00
2100
4080
4080
7f80
4000
4000
4080
2100
1e00
0000
0000
0000
ENDCHAR
STARTCHAR EPSILON
ENCODING 163
SWIDTH 505 0
DWIDTH 10 0
BBX 10 20 0 -3
BITMAP
0000
0000
0000
0000
0000
0000
0000
1e00
2100
4080
2000
1e00
2000
4000
4080
2100
1e00
0000
0000
0000
ENDCHAR
STARTCHAR ASH
ENCODING 164
SWIDTH 505 0
DWIDTH 10 0
BBX 10 20 0 -3
BITMAP
0000
0000
0000
0000
0000
0000
0000
7b80
8c40
8840
0840
1fc0
6800
8800
8800
8c40
7380
0000
0000
0000
ENDCHAR
STARTCHAR LOWER-CASE_A
ENCODING 165
SWIDTH 505 0
DWIDTH 10 0
BBX 10 20 0 -3
BITMAP
0000
0000
0000
0000
0000
0000
0000
1f00
2080
6080
0080
0f80
3080
4080
4080
4180
3ec0
0000
0000
0000
ENDCHAR
STARTCHAR BARRED_I
ENCODING 166
SWIDTH 505 0
DWIDTH 10 0
BBX 10 20 0 -3
BITMAP
0000
0000
0000
0c00
0c00
0000
0000
3c00
0400
0400
0400
7f80
0400
0400
0400
0400
7f80
0000
0000
0000
ENDCHAR
STARTCHAR SCHWA
ENCODING 167
SWIDTH 505 0
DWIDTH 10 0
BBX 10 20 0 -3
BITMAP
0000
0000
0000
0000
0000
0000
0000
1e00
2100
4080
0080
0080
7f80
4080
4080
2100
1e00
0000
0000
0000
ENDCHAR
STARTCHAR TURNED_A
ENCODING 168
SWIDTH 505 0
DWIDTH 10 0
BBX 10 20 0 -3
BITMAP
0000
0000
0000
0000
0000
0000
0000
df00
6080
4080
4080
4300
7c00
4000
4180
4100
3e00
0000
0000
0000
ENDCHAR
STARTCHAR TURNED_M
ENCODING 169
SWIDTH 505 0
DWIDTH 10 0
BBX 10 20 0 -3
BITMAP
0000
0000
0000
0000
0000
0000
0000
c900
4900
4900
4900
4900
4900
4900
4900
4900
36c0
0000
0000
0000
ENDCHAR
STARTCHAR GAMMA
ENCODING 170
SWIDTH 505 0
DWIDTH 10 0
BBX 10 20 0 -3
BITMAP
0000
0000
0000
0000
0000
0000
0000
6080
b140
3100
1a00
1a00
0c00
0c00
1200
1200
0c00
0000
0000
0000
ENDCHAR
STARTCHAR TURNED_V
ENCODING 171
SWIDTH 505 0
DWIDTH 10 0
BBX 10 20 0 -3
BITMAP
0000
0000
0000
0000
0000
0000
0000
0400
0400
0a00
0a00
1100
1100
1100
2080
2080
f3c0
0000
0000
0000
ENDCHAR
STARTCHAR SCRIPT_A
ENCODING 172
SWIDTH 505 0
DWIDTH 10 0
BBX 10 20 0 -3
BITMAP
0000
0000
0000
0000
0000
0000
0000
1e80
2180
2080
4080
4080
4080
4080
4180
2280
1cc0
0000
0000
0000
ENDCHAR
STARTCHAR LOWER-CASE_Y
ENCODING 173
SWIDTH 505 0
DWIDTH 10 0
BBX 10 20 0 -3
BITMAP
0000
0000
0000
0000
0000
0000
0000
f1c0
2080
2080
2100
1100
1200
0a00
0a00
0400
0400
c800
8800
7000
ENDCHAR
STARTCHAR SMALL_CAP_Y
ENCODING 174
SWIDTH 505 0
DWIDTH 10 0
BBX 10 20 0 -3
BITMAP
0000
0000
0000
0000
0000
0000
0000
79c0
1080
1080
1900
0900
0e00
0400
0400
0400
1f00
0000
0000
0000
ENDCHAR
STARTCHAR SLASHED_O
ENCODING 175
SWIDTH 505 0
DWIDTH 10 0
BBX 10 20 0 -3
BITMAP
0000
0000
0000
0000
0000
0100
0100
1e00
2300
4280
4480
4480
4880
4880
5080
3100
1e00
2000
2000
0000
ENDCHAR
STARTCHAR O-E_LIGATURE
ENCODING 176
SWIDTH 505 0
DWIDTH 10 0
BBX 10 20 0 -3
BITMAP
0000
0000
0000
0000
0000
0000
0000
7300
8c80
8840
8840
8fc0
8800
8800
8800
8c40
7380
0000
0000
0000
ENDCHAR
STARTCHAR SMALL_CAP_O-E
ENCODING 177
SWIDTH 505 0
DWIDTH 10 0
BBX 10 20 0 -3
BITMAP
0000
0000
0000
0000
0000
0000
0000
77c0
8c40
8440
8480
8780
8480
8400
8440
8c40
77c0
0000
0000
0000
ENDCHAR
STARTCHAR BARRED_U
ENCODING 178
SWIDTH 505 0
DWIDTH 10 0
BBX 10 20 0 -3
BITMAP
0000
0000
0000
0000
0000
0000
0000
e380
2080
2080
2080
ffc0
2080
2080
2080
2180
1ec0
0000
0000
0000
ENDCHAR
STARTCHAR BARRED_O
ENCODING 179
SWIDTH 505 0
DWIDTH 10 0
BBX 10 20 0 -3
BITMAP
0000
0000
0000
0000
0000
0000
0000
1e00
2100
4080
4080
7f80
4080
4080
4080
2100
1e00
0000
0000
0000
ENDCHAR
STARTCHAR LOWER-CASE_U
ENCODING 180
SWIDTH 505 0
DWIDTH 10 0
BBX 10 20 0 -3
BITMAP
0000
0000
0000
0000
0000
0000
0000
e380
2080
2080
2080
2080
2080
2080
2080
2180
1ec0
0000
0000
0000
ENDCHAR
STARTCHAR UPSILON
ENCODING 181
SWIDTH 505 0
DWIDTH 10 0
BBX 10 20 0 -3
BITMAP
0000
0000
0000
0000
0000
0000
0000
f3c0
1200
1200
2100
4080
8040
8040
8040
6180
1e00
0000
0000
0000
ENDCHAR
STARTCHAR LOWER-CASE_O
ENCODING 182
SWIDTH 505 0
DWIDTH 10 0
BBX 10 20 0 -3
BITMAP
0000
0000
0000
0000
0000
0000
0000
1e00
2100
4080
4080
4080
4080
4080
4080
2100
1e00
0000
0000
0000
ENDCHAR
STARTCHAR OPEN_O
ENCODING 183
SWIDTH 505 0
DWIDTH 10 0
BBX 10 20 0 -3
BITMAP
0000
0000
0000
0000
0000
0000
0000
1e00
2100
4080
0080
0080
0080
0080
4080
2100
1e00
0000
0000
0000
ENDCHAR
STARTCHAR TURND_SCRIPT_A
ENCODING 184
SWIDTH 505 0
DWIDTH 10 0
BBX 10 20 0 -3
BITMAP
0000
0000
0000
0000
0000
0000
0000
6700
2880
3040
2040
2040
2040
2040
2080
3080
2f00
0000
0000
0000
ENDCHAR
STARTCHAR b9
ENCODING 185
SWIDTH 505 0
DWIDTH 10 0
BBX 10 20 0 -3
BITMAP
0000
0000
0000
0000
0000
0000
0000
0000
0000
0000
0000
0000
0000
0000
0000
0000
0000
0000
0000
0000
ENDCHAR
STARTCHAR RIGHTHOOKSCHWA
ENCODING 186
SWIDTH 505 0
DWIDTH 10 0
BBX 10 20 0 -3
BITMAP
0000
0000
0000
0000
0000
0000
0000
3800
4400
8280
0380
0e80
3280
c240
8240
4400
3800
0000
0000
0000
ENDCHAR
STARTCHAR EPSILON_TILDE
ENCODING 187
SWIDTH 505 0
DWIDTH 10 0
BBX 10 20 0 -3
BITMAP
0000
0000
0000
1900
2600
0000
0000
1e00
2100
4080
2000
1e00
2000
4000
4080
2100
1e00
0000
0000
0000
ENDCHAR
STARTCHAR SCRIPT_A_TILDE
ENCODING 188
SWIDTH 505 0
DWIDTH 10 0
BBX 10 20 0 -3
BITMAP
0000
0000
0000
1900
2600
0000
0000
1e80
2180
2080
4080
4080
4080
4080
4180
2280
1cc0
0000
0000
0000
ENDCHAR
STARTCHAR OE_LIG_TILDE
ENCODING 189
SWIDTH 505 0
DWIDTH 10 0
BBX 10 20 0 -3
BITMAP
0000
0000
0000
1900
2600
0000
0000
7300
8c80
8840
8840
8fc0
8800
8800
8800
8c40
7380
0000
0000
0000
ENDCHAR
STARTCHAR OPEN_O_TILDE
ENCODING 190
SWIDTH 505 0
DWIDTH 10 0
BBX 10 20 0 -3
BITMAP
0000
0000
0000
1900
2600
0000
0000
1e00
2100
4080
0080
0080
0080
0080
4080
2100
1e00
0000
0000
0000
ENDCHAR
STARTCHAR bf
ENCODING 191
SWIDTH 505 0
DWIDTH 10 0
BBX 10 20 0 -3
BITMAP
0000
0000
0000
0000
0000
0000
0000
0000
0000
0000
0000
0000
0000
0000
0000
0000
0000
0000
0000
0000
ENDCHAR
STARTCHAR LOWER-CASE_P
ENCODING 192
SWIDTH 505 0
DWIDTH 10 0
BBX 10 20 0 -3
BITMAP
0000
0000
0000
0000
0000
0000
0000
ee00
3100
2080
2080
2080
2080
2080
3100
2e00
2000
2000
2000
7000
ENDCHAR
STARTCHAR LOWER-CASE_B
ENCODING 193
SWIDTH 505 0
DWIDTH 10 0
BBX 10 20 0 -3
BITMAP
0000
0000
0000
e000
2000
2000
2000
2e00
3100
2080
2080
2080
2080
2080
2080
3100
2e00
0000
0000
0000
ENDCHAR
STARTCHAR LOWER-CASE_T
ENCODING 194
SWIDTH 505 0
DWIDTH 10 0
BBX 10 20 0 -3
BITMAP
0000
0000
0000
0800
0800
0800
0800
7f00
0800
0800
0800
0800
0800
0800
0880
0880
0700
0000
0000
0000
ENDCHAR
STARTCHAR LOWER-CASE_D
ENCODING 195
SWIDTH 505 0
DWIDTH 10 0
BBX 10 20 0 -3
BITMAP
0000
0000
0000
0700
0100
0100
0100
1d00
2300
4100
4100
4100
4100
4100
4100
2300
1d80
0000
0000
0000
ENDCHAR
STARTCHAR LOWER-CASE_K
ENCODING 196
SWIDTH 505 0
DWIDTH 10 0
BBX 10 20 0 -3
BITMAP
0000
0000
0000
e000
2000
2000
2000
2780
2200
2400
2800
3000
2800
2400
2200
2100
f780
0000
0000
0000
ENDCHAR
STARTCHAR LOWER-CASE_G
ENCODING 197
SWIDTH 505 0
DWIDTH 10 0
BBX 10 20 0 -3
BITMAP
0000
0000
0000
0000
0000
0000
0000
1d80
2300
4100
4100
4100
4100
2300
1d00
0100
6100
4100
2200
1c00
ENDCHAR
STARTCHAR LOWER-CASE_F
ENCODING 198
SWIDTH 505 0
DWIDTH 10 0
BBX 10 20 0 -3
BITMAP
0000
0000
0000
0f00
1080
1180
1000
7e00
1000
1000
1000
1000
1000
1000
1000
1000
7c00
0000
0000
0000
ENDCHAR
STARTCHAR LOWER-CASE_V
ENCODING 199
SWIDTH 505 0
DWIDTH 10 0
BBX 10 20 0 -3
BITMAP
0000
0000
0000
0000
0000
0000
0000
f3c0
2080
2080
1100
1100
1100
0a00
0e00
0400
0400
0000
0000
0000
ENDCHAR
STARTCHAR THETA
ENCODING 200
SWIDTH 505 0
DWIDTH 10 0
BBX 10 20 0 -3
BITMAP
0000
0000
0000
0e00
1100
2080
2080
2080
2080
3f80
2080
2080
2080
2080
2080
1100
0e00
0000
0000
0000
ENDCHAR
STARTCHAR ETH
ENCODING 201
SWIDTH 505 0
DWIDTH 10 0
BBX 10 20 0 -3
BITMAP
0000
0000
6200
1400
0800
1400
6200
0100
1f00
2180
4080
4080
4080
4080
4080
2100
1e00
0000
0000
0000
ENDCHAR
STARTCHAR LOWER-CASE_S
ENCODING 202
SWIDTH 505 0
DWIDTH 10 0
BBX 10 20 0 -3
BITMAP
0000
0000
0000
0000
0000
0000
0000
3e80
4180
4080
6000
1c00
0300
4080
4080
6080
5f00
0000
0000
0000
ENDCHAR
STARTCHAR LOWER-CASE_Z
ENCODING 203
SWIDTH 505 0
DWIDTH 10 0
BBX 10 20 0 -3
BITMAP
0000
0000
0000
0000
0000
0000
0000
7f80
4100
4200
0200
0400
0800
0800
1080
2080
7f80
0000
0000
0000
ENDCHAR
STARTCHAR ESH
ENCODING 204
SWIDTH 505 0
DWIDTH 10 0
BBX 10 20 0 -3
BITMAP
0000
0000
0180
0280
0200
0200
0400
0400
0400
0400
0400
0400
0400
0400
0400
0400
0800
0800
2800
3000
ENDCHAR
STARTCHAR YOGH
ENCODING 205
SWIDTH 505 0
DWIDTH 10 0
BBX 10 20 0 -3
BITMAP
0000
0000
0000
0000
0000
0000
0000
7f80
4100
4200
0400
0800
1600
2100
0080
0080
6080
4080
4100
3e00
ENDCHAR
STARTCHAR C_CEDILLA
ENCODING 206
SWIDTH 505 0
DWIDTH 10 0
BBX 10 20 0 -3
BITMAP
0000
0000
0000
0000
0000
0000
0000
1e00
2100
4180
4000
4000
4000
4080
2100
1e00
0800
0600
0100
0e00
ENDCHAR
STARTCHAR LOWER-CASE_X
ENCODING 207
SWIDTH 505 0
DWIDTH 10 0
BBX 10 20 0 -3
BITMAP
0000
0000
0000
0000
0000
0000
0000
f780
2200
2200
1400
0800
0800
1400
2200
2200
f780
0000
0000
0000
ENDCHAR
STARTCHAR INVERTED_SC_R
ENCODING 208
SWIDTH 505 0
DWIDTH 10 0
BBX 10 20 0 -3
BITMAP
0000
0000
0000
0000
0000
0000
0000
f3c0
4100
4200
4200
4400
7f00
4080
4080
4080
ff00
0000
0000
0000
ENDCHAR
STARTCHAR LOWER-CASE_H
ENCODING 209
SWIDTH 505 0
DWIDTH 10 0
BBX 10 20 0 -3
BITMAP
0000
0000
0000
e000
2000
2000
2000
2f00
3080
2080
2080
2080
2080
2080
2080
2080
f3c0
0000
0000
0000
ENDCHAR
STARTCHAR LOWER-CASE_M
ENCODING 210
SWIDTH 505 0
DWIDTH 10 0
BBX 10 20 0 -3
BITMAP
0000
0000
0000
0000
0000
0000
0000
db00
2480
2480
2480
2480
2480
2480
2480
2480
64c0
0000
0000
0000
ENDCHAR
STARTCHAR LOWER-CASE_N
ENCODING 211
SWIDTH 505 0
DWIDTH 10 0
BBX 10 20 0 -3
BITMAP
0000
0000
0000
0000
0000
0000
0000
ef00
3080
2080
2080
2080
2080
2080
2080
2080
71c0
0000
0000
0000
ENDCHAR
STARTCHAR LEFT-HOOK_N
ENCODING 212
SWIDTH 505 0
DWIDTH 10 0
BBX 10 20 0 -3
BITMAP
0000
0000
0000
0000
0000
0000
0000
ef00
3080
2080
2080
2080
2080
2080
2080
2080
21c0
2000
a000
c000
ENDCHAR
STARTCHAR ENG
ENCODING 213
SWIDTH 505 0
DWIDTH 10 0
BBX 10 20 0 -3
BITMAP
0000
0000
0000
0000
0000
0000
0000
ee00
3100
2080
2080
2080
2080
2080
2080
7080
0080
3100
2100
1e00
ENDCHAR
STARTCHAR LOWER-CASE_R
ENCODING 214
SWIDTH 505 0
DWIDTH 10 0
BBX 10 20 0 -3
BITMAP
0000
0000
0000
0000
0000
0000
0000
7700
1880
1180
1000
1000
1000
1000
1000
1000
7c00
0000
0000
0000
ENDCHAR
STARTCHAR SMALL_CAP_R
ENCODING 215
SWIDTH 505 0
DWIDTH 10 0
BBX 10 20 0 -3
BITMAP
0000
0000
0000
0000
0000
0000
0000
ff00
4080
4080
4080
7f00
4400
4200
4200
4100
f3c0
0000
0000
0000
ENDCHAR
STARTCHAR INVERTED_R
ENCODING 216
SWIDTH 505 0
DWIDTH 10 0
BBX 10 20 0 -3
BITMAP
0000
0000
0000
0000
0000
0000
0000
0f80
0200
0200
0200
0200
0200
0200
6200
4600
3b80
0000
0000
0000
ENDCHAR
STARTCHAR LOWER-CASE_J
ENCODING 217
SWIDTH 505 0
DWIDTH 10 0
BBX 10 20 0 -3
BITMAP
0000
0000
0000
0180
0180
0000
0000
0f80
0080
0080
0080
0080
0080
0080
0080
0080
0080
6080
4100
3e00
ENDCHAR
STARTCHAR LOWER-CASE_L
ENCODING 218
SWIDTH 505 0
DWIDTH 10 0
BBX 10 20 0 -3
BITMAP
0000
0000
0000
3c00
0400
0400
0400
0400
0400
0400
0400
0400
0400
0400
0400
0400
7f80
0000
0000
0000
ENDCHAR
STARTCHAR TURNED_Y
ENCODING 219
SWIDTH 505 0
DWIDTH 10 0
BBX 10 20 0 -3
BITMAP
0000
0000
0000
0000
0380
0440
04c0
0800
0800
1400
1400
1200
2200
2100
4100
4100
e3c0
0000
0000
0000
ENDCHAR
STARTCHAR SMALL_CAP_L
ENCODING 220
SWIDTH 505 0
DWIDTH 10 0
BBX 10 20 0 -3
BITMAP
0000
0000
0000
0000
0000
0000
0000
f800
2000
2000
2000
2000
2000
2080
2080
2080
ff80
0000
0000
0000
ENDCHAR
STARTCHAR TURNED_H
ENCODING 221
SWIDTH 505 0
DWIDTH 10 0
BBX 10 20 0 -3
BITMAP
0000
0000
0000
0000
0000
0000
0000
f3c0
4100
4100
4100
4100
4100
4100
4300
3d00
0100
0100
0100
01c0
ENDCHAR
STARTCHAR LOWER-CASE_W
ENCODING 222
SWIDTH 505 0
DWIDTH 10 0
BBX 10 20 0 -3
BITMAP
0000
0000
0000
0000
0000
0000
0000
e780
4100
4900
4900
4900
5d00
5500
5500
2200
2200
0000
0000
0000
ENDCHAR
STARTCHAR TURNED_W
ENCODING 223
SWIDTH 505 0
DWIDTH 10 0
BBX 10 20 0 -3
BITMAP
0000
0000
0000
0000
0000
0000
0000
2200
2200
5500
5500
5d00
4900
4900
4900
4100
f380
0000
0000
0000
ENDCHAR
STARTCHAR V_STROKE(SUP)
ENCODING 240
SWIDTH 505 0
DWIDTH 10 0
BBX 10 20 0 -3
BITMAP
0000
0000
0000
0000
0400
0400
0400
0400
0000
0000
0000
0000
0000
0000
0000
0000
0000
0000
0000
0000
ENDCHAR
STARTCHAR V_STROKE(INF)
ENCODING 241
SWIDTH 505 0
DWIDTH 10 0
BBX 10 20 0 -3
BITMAP
0000
0000
0000
0000
0000
0000
0000
0000
0000
0000
0000
0000
0000
0000
0000
0000
0400
0400
0400
0400
ENDCHAR
STARTCHAR LENGTH_MARK
ENCODING 242
SWIDTH 505 0
DWIDTH 10 0
BBX 10 20 0 -3
BITMAP
0000
0000
0000
0000
0000
0000
3e00
1c00
0800
0800
0000
0000
0000
0000
0800
0800
1c00
3e00
0000
0000
ENDCHAR
ENDFONT
